<?xml version="1.0" standalone="no"?>
<!DOCTYPE svg PUBLIC "-//W3C//DTD SVG 20010904//EN"
 "http://www.w3.org/TR/2001/REC-SVG-20010904/DTD/svg10.dtd">
<svg version="1.0" xmlns="http://www.w3.org/2000/svg"
 width="315.000000pt" height="138.000000pt" viewBox="0 0 315.000000 138.000000"
 preserveAspectRatio="xMidYMid meet">

<g transform="translate(0.000000,138.000000) scale(0.100000,-0.100000)"
fill="#000000" stroke="none">
<path d="M2805 1123 c-97 -51 -131 -153 -84 -250 30 -62 87 -96 159 -96 110 0
181 69 182 177 1 58 -16 98 -59 138 -52 49 -138 63 -198 31z"/>
<path d="M297 846 c-46 -17 -99 -56 -126 -95 -40 -55 -21 -51 37 8 92 94 179
106 229 32 82 -122 41 -329 -92 -468 -77 -79 -137 -83 -143 -10 -3 31 3 43 37
79 36 38 41 41 41 21 0 -35 18 -27 22 10 3 29 9 34 55 52 29 11 53 23 53 28 0
10 -47 -2 -84 -20 l-29 -15 8 147 c4 93 4 145 -2 142 -6 -4 -13 -70 -17 -149
l-7 -143 -39 -40 c-63 -65 -77 -126 -37 -163 13 -12 32 -22 43 -22 33 0 110
57 149 110 137 187 137 439 -2 496 -39 17 -48 17 -96 0z"/>
<path d="M1691 825 c-83 -76 -145 -262 -139 -420 3 -83 6 -96 27 -119 35 -37
72 -34 121 11 49 43 83 89 78 104 -2 6 -18 -10 -36 -34 -62 -87 -139 -110
-164 -49 -16 40 -13 179 6 253 45 177 158 321 196 249 13 -24 5 -59 -27 -123
-25 -50 -24 -75 2 -41 21 28 45 103 45 140 0 37 -22 64 -51 64 -10 0 -36 -16
-58 -35z"/>
<path d="M2414 825 c-19 -30 -50 -152 -60 -237 -6 -50 -8 -55 -21 -42 -8 7
-21 14 -29 14 -19 0 -64 -46 -87 -89 -24 -47 -41 -35 -47 35 -6 63 -12 59 -30
-23 -14 -60 -31 -81 -49 -59 -12 14 -9 77 6 129 2 9 0 17 -6 17 -10 0 -16 -15
-25 -70 -4 -19 -15 -46 -26 -60 -17 -21 -21 -23 -30 -10 -5 8 -10 32 -10 52 0
58 -15 53 -41 -14 -13 -34 -30 -64 -38 -66 -20 -7 -10 93 15 143 22 45 52 58
61 26 5 -22 23 -29 23 -10 0 24 -22 49 -45 49 -42 0 -85 -87 -85 -170 0 -73
37 -78 72 -10 l17 33 10 -25 c14 -38 30 -43 55 -19 23 22 23 22 29 2 8 -31 54
-28 69 3 9 22 12 23 25 10 8 -8 23 -12 33 -9 9 3 23 -1 30 -10 19 -23 39 -18
76 19 l34 34 0 -60 c0 -59 12 -98 31 -98 6 0 6 7 -1 19 -5 11 -10 56 -10 101
0 71 5 92 34 158 46 106 78 207 74 234 -4 32 -34 34 -54 3z m32 -37 c-7 -42
-52 -166 -66 -181 -10 -12 7 87 27 148 26 81 50 102 39 33z m-118 -260 c14
-14 -22 -84 -51 -100 -43 -23 -47 33 -6 85 22 29 38 34 57 15z"/>
<path d="M1856 798 c-19 -53 -36 -156 -36 -224 0 -35 -5 -56 -16 -65 -14 -11
-14 -14 -2 -23 10 -7 17 -40 21 -97 9 -111 36 -203 62 -208 17 -3 17 -1 6 12
-21 26 -40 101 -51 210 -11 98 -10 104 13 157 29 66 57 183 57 239 0 34 -3 41
-19 41 -14 0 -24 -13 -35 -42z m19 -112 c-18 -81 -35 -117 -35 -75 0 35 19
137 33 179 l12 35 3 -34 c2 -18 -4 -66 -13 -105z"/>
<path d="M723 599 c-13 -53 -68 -159 -83 -159 -16 0 -32 40 -30 73 3 47 1 54
-10 37 -5 -8 -10 -27 -10 -41 0 -45 -20 -89 -41 -89 -16 0 -19 8 -19 51 0 28
5 59 11 71 12 23 4 37 -13 20 -16 -16 -22 -115 -9 -141 15 -27 46 -27 65 1 13
18 18 19 30 8 23 -18 42 -6 75 45 l29 46 7 -58 c6 -61 23 -106 40 -106 6 0 21
22 35 49 24 47 27 49 67 49 41 0 42 -1 45 -35 4 -53 37 -48 66 10 14 28 22 37
22 24 0 -11 6 -28 13 -38 20 -28 52 -6 83 57 24 47 49 76 66 77 3 0 -1 -30 -9
-66 -8 -36 -12 -76 -9 -90 9 -34 40 -30 65 9 19 29 21 30 21 9 0 -50 50 -35
74 22 l13 31 8 -25 c15 -49 52 -44 81 11 23 46 12 56 -16 13 -30 -46 -44 -49
-48 -9 -8 90 -19 92 -47 8 -18 -57 -32 -73 -45 -53 -12 19 -1 79 24 130 23 50
54 65 63 31 6 -24 23 -29 23 -7 0 20 -28 46 -49 46 -31 0 -49 -29 -101 -167
-13 -35 -37 -60 -47 -49 -6 5 12 118 23 151 2 6 0 17 -6 25 -7 12 -12 12 -22
2 -18 -18 -28 -15 -28 9 0 14 -5 19 -17 17 -13 -3 -18 -13 -18 -38 0 -46 -21
-103 -45 -125 -22 -20 -23 -19 -38 55 l-9 45 -17 -40 c-40 -99 -63 -114 -59
-42 3 57 30 125 54 132 23 8 39 -1 39 -21 0 -8 5 -14 10 -14 14 0 12 12 -6 38
-30 43 -75 18 -104 -60 -18 -50 -42 -68 -67 -52 -13 8 -17 22 -15 45 1 18 0
40 -3 48 -10 25 -25 -7 -25 -51 0 -21 -10 -63 -21 -94 -19 -50 -23 -55 -33
-38 -6 11 -11 69 -11 142 0 67 -2 122 -5 122 -3 0 -11 -23 -17 -51z"/>
<path d="M2405 590 c-3 -5 -1 -10 4 -10 6 0 11 5 11 10 0 6 -2 10 -4 10 -3 0
-8 -4 -11 -10z"/>
<path d="M2552 563 c-7 -2 -23 -28 -37 -56 -54 -112 -90 -127 -79 -32 8 69 1
90 -26 75 -23 -12 -28 -35 -5 -27 11 5 15 -7 17 -61 3 -59 5 -67 22 -67 12 0
34 18 53 43 33 44 39 43 45 -8 4 -35 40 -39 62 -6 9 15 23 26 31 26 8 0 19 9
25 20 11 20 -3 30 -15 10 -13 -21 -25 -9 -25 24 0 25 -7 39 -22 50 -24 17 -26
17 -46 9z m46 -46 c15 -31 9 -47 -19 -47 -22 0 -25 10 -7 28 6 6 8 15 4 19 -4
5 -14 0 -21 -10 -19 -26 -27 -5 -9 22 19 27 35 23 52 -12z m-11 -80 c-6 -20
-27 -19 -27 2 0 14 5 19 15 14 9 -3 14 -10 12 -16z"/>
</g>
</svg>
